<?xml version="1.0" standalone="no"?>
<!DOCTYPE svg PUBLIC "-//W3C//DTD SVG 20010904//EN"
 "http://www.w3.org/TR/2001/REC-SVG-20010904/DTD/svg10.dtd">
<svg version="1.0" xmlns="http://www.w3.org/2000/svg"
 width="409.000000pt" height="464.000000pt" viewBox="0 0 409.000000 464.000000"
 preserveAspectRatio="xMidYMid meet">

<g transform="translate(0.000000,464.000000) scale(0.100000,-0.100000)"
fill="#000000" stroke="none">
<path d="M1000 4061 l-995 -577 -3 -584 -2 -585 95 -53 c52 -30 95 -57 95 -61
0 -4 -43 -31 -95 -61 l-95 -55 0 -460 0 -460 98 -56 97 -56 3 458 2 458 100
56 c55 31 103 55 108 53 28 -11 182 -104 182 -110 0 -4 -43 -31 -95 -60 l-95
-53 0 -462 0 -461 96 -56 c52 -31 97 -56 100 -56 2 0 4 206 4 458 l0 457 100
58 100 59 90 -52 c49 -28 92 -55 95 -60 3 -5 -38 -34 -90 -65 l-95 -56 2 -461
3 -462 95 -57 95 -58 3 460 2 459 27 17 c15 10 238 142 497 293 l471 276 3
112 c1 62 1 112 -2 112 -2 0 -226 -128 -497 -285 -271 -157 -494 -285 -496
-285 -1 0 -3 51 -3 114 l0 114 383 221 c211 122 391 227 400 234 15 10 6 19
-75 66 -51 30 -98 54 -103 54 -6 0 -141 -75 -299 -166 -159 -92 -292 -167
-297 -167 -6 0 -8 49 -7 112 l3 111 193 112 c105 61 194 114 197 117 5 5 -178
118 -190 118 -2 0 -46 -25 -99 -55 -52 -30 -98 -55 -101 -55 -3 0 -4 50 -3
112 l3 112 495 287 495 286 3 117 c1 64 1 116 -2 116 -2 0 -271 -155 -597
-344 l-594 -344 -3 -233 -3 -234 -93 -52 c-52 -29 -97 -53 -100 -53 -3 0 -6
155 -6 344 l0 343 700 404 699 404 1 118 0 118 -23 -13 c-13 -7 -373 -215
-800 -463 l-777 -449 0 -466 0 -465 -98 -56 -97 -56 -3 571 c-1 314 0 576 2
582 2 6 407 245 900 530 l896 518 0 118 c0 65 -1 118 -2 117 -2 -1 -451 -261
-998 -578z m-200 -1864 l0 -112 -52 -31 c-29 -17 -75 -44 -101 -59 l-48 -27 3
117 3 117 90 53 c50 29 93 54 98 54 4 1 7 -50 7 -112z"/>
<path d="M2812 3935 c-18 -8 -206 -114 -418 -236 l-384 -222 0 -579 c0 -319 3
-577 8 -575 4 2 226 131 494 286 268 154 490 281 493 281 3 0 4 -237 3 -527
l-3 -528 -24 -50 c-14 -27 -43 -67 -65 -89 -25 -24 -210 -137 -471 -287 l-430
-248 -3 -581 -2 -582 32 20 c18 11 440 255 938 542 498 287 920 536 938 553
18 18 48 61 65 97 l32 65 3 959 c2 645 -1 976 -8 1010 -6 28 -20 63 -33 78
-12 14 -251 160 -532 324 -549 320 -557 324 -633 289z"/>
</g>
</svg>
